<mxfile host="app.diagrams.net" modified="2023-05-31T00:47:38.351Z" agent="Mozilla/5.0 (Windows NT 10.0; Win64; x64) AppleWebKit/537.36 (KHTML, like Gecko) Chrome/112.0.0.0 Safari/537.36" etag="Ch-Z_l5BKFCigaDcfe2e" version="21.3.6" type="github">
  <diagram name="PÃ¡gina-1" id="r9rdRXFCgWIeOY9o3cY9">
    <mxGraphModel dx="2954" dy="709" grid="1" gridSize="10" guides="1" tooltips="1" connect="1" arrows="1" fold="1" page="1" pageScale="1" pageWidth="827" pageHeight="1169" math="0" shadow="0">
      <root>
        <mxCell id="0" />
        <mxCell id="1" parent="0" />
        <mxCell id="VtxvKHknxVCpQTFJ7BzY-7" value="AWS Cloud" style="sketch=0;outlineConnect=0;dashed=0;verticalLabelPosition=bottom;verticalAlign=top;align=center;html=1;fontSize=12;fontStyle=0;aspect=fixed;shape=mxgraph.aws4.resourceIcon;resIcon=mxgraph.aws4.aws_cloud;strokeColor=#FFFFFF;fillColor=#333333;" vertex="1" parent="1">
          <mxGeometry x="-827" y="37.5" width="60" height="60" as="geometry" />
        </mxCell>
        <mxCell id="VtxvKHknxVCpQTFJ7BzY-8" value="AWS Cloud" style="text;html=1;strokeColor=none;fillColor=none;align=center;verticalAlign=middle;whiteSpace=wrap;rounded=0;" vertex="1" parent="1">
          <mxGeometry x="-790" y="50" width="130" height="35" as="geometry" />
        </mxCell>
        <mxCell id="VtxvKHknxVCpQTFJ7BzY-9" value="AWS WAF" style="sketch=0;outlineConnect=0;fontColor=#232F3E;gradientColor=none;strokeColor=#ffffff;fillColor=#FF3333;dashed=0;verticalLabelPosition=middle;verticalAlign=bottom;align=center;html=1;whiteSpace=wrap;fontSize=10;fontStyle=1;spacing=3;shape=mxgraph.aws4.productIcon;prIcon=mxgraph.aws4.waf;" vertex="1" parent="1">
          <mxGeometry x="-610" y="219" width="90" height="110" as="geometry" />
        </mxCell>
        <mxCell id="VtxvKHknxVCpQTFJ7BzY-10" value="Users" style="sketch=0;outlineConnect=0;gradientColor=none;fontColor=#545B64;strokeColor=none;fillColor=#000000;verticalLabelPosition=bottom;verticalAlign=top;align=center;html=1;fontSize=12;fontStyle=0;aspect=fixed;shape=mxgraph.aws4.illustration_users;pointerEvents=1" vertex="1" parent="1">
          <mxGeometry x="-1020" y="240" width="100" height="100" as="geometry" />
        </mxCell>
        <mxCell id="VtxvKHknxVCpQTFJ7BzY-11" value="" style="sketch=0;points=[[0,0,0],[0.25,0,0],[0.5,0,0],[0.75,0,0],[1,0,0],[0,1,0],[0.25,1,0],[0.5,1,0],[0.75,1,0],[1,1,0],[0,0.25,0],[0,0.5,0],[0,0.75,0],[1,0.25,0],[1,0.5,0],[1,0.75,0]];outlineConnect=0;fontColor=#232F3E;gradientColor=#945DF2;gradientDirection=north;fillColor=#5A30B5;strokeColor=#ffffff;dashed=0;verticalLabelPosition=bottom;verticalAlign=top;align=center;html=1;fontSize=12;fontStyle=0;aspect=fixed;shape=mxgraph.aws4.resourceIcon;resIcon=mxgraph.aws4.route_53;" vertex="1" parent="1">
          <mxGeometry x="-800" y="230" width="88" height="88" as="geometry" />
        </mxCell>
        <mxCell id="VtxvKHknxVCpQTFJ7BzY-12" value="" style="sketch=0;points=[[0,0,0],[0.25,0,0],[0.5,0,0],[0.75,0,0],[1,0,0],[0,1,0],[0.25,1,0],[0.5,1,0],[0.75,1,0],[1,1,0],[0,0.25,0],[0,0.5,0],[0,0.75,0],[1,0.25,0],[1,0.5,0],[1,0.75,0]];outlineConnect=0;fontColor=#232F3E;gradientColor=#945DF2;gradientDirection=north;fillColor=#5A30B5;strokeColor=#ffffff;dashed=0;verticalLabelPosition=bottom;verticalAlign=top;align=center;html=1;fontSize=12;fontStyle=0;aspect=fixed;shape=mxgraph.aws4.resourceIcon;resIcon=mxgraph.aws4.cloudfront;" vertex="1" parent="1">
          <mxGeometry x="-680" y="460" width="78" height="78" as="geometry" />
        </mxCell>
        <mxCell id="VtxvKHknxVCpQTFJ7BzY-13" value="" style="sketch=0;outlineConnect=0;fontColor=#232F3E;gradientColor=none;fillColor=#4D27AA;strokeColor=none;dashed=0;verticalLabelPosition=bottom;verticalAlign=top;align=center;html=1;fontSize=12;fontStyle=0;aspect=fixed;pointerEvents=1;shape=mxgraph.aws4.endpoint;" vertex="1" parent="1">
          <mxGeometry x="-360" y="450" width="78" height="78" as="geometry" />
        </mxCell>
        <mxCell id="VtxvKHknxVCpQTFJ7BzY-14" value="" style="sketch=0;outlineConnect=0;fontColor=#232F3E;gradientColor=none;strokeColor=#ffffff;fillColor=#009900;dashed=0;verticalLabelPosition=middle;verticalAlign=bottom;align=center;html=1;whiteSpace=wrap;fontSize=10;fontStyle=1;spacing=3;shape=mxgraph.aws4.productIcon;prIcon=mxgraph.aws4.s3;" vertex="1" parent="1">
          <mxGeometry x="-360" y="224.5" width="90" height="99" as="geometry" />
        </mxCell>
        <mxCell id="VtxvKHknxVCpQTFJ7BzY-17" value="" style="endArrow=classic;html=1;rounded=0;" edge="1" parent="1" source="VtxvKHknxVCpQTFJ7BzY-10">
          <mxGeometry width="50" height="50" relative="1" as="geometry">
            <mxPoint x="-900" y="290" as="sourcePoint" />
            <mxPoint x="-830" y="290" as="targetPoint" />
          </mxGeometry>
        </mxCell>
        <mxCell id="VtxvKHknxVCpQTFJ7BzY-18" value="" style="endArrow=classic;html=1;rounded=0;" edge="1" parent="1" source="VtxvKHknxVCpQTFJ7BzY-11">
          <mxGeometry width="50" height="50" relative="1" as="geometry">
            <mxPoint x="-640" y="250" as="sourcePoint" />
            <mxPoint x="-610" y="274" as="targetPoint" />
          </mxGeometry>
        </mxCell>
        <mxCell id="VtxvKHknxVCpQTFJ7BzY-20" value="" style="endArrow=classic;html=1;rounded=0;" edge="1" parent="1" source="VtxvKHknxVCpQTFJ7BzY-9" target="VtxvKHknxVCpQTFJ7BzY-12">
          <mxGeometry width="50" height="50" relative="1" as="geometry">
            <mxPoint x="-640" y="440" as="sourcePoint" />
            <mxPoint x="-560" y="470" as="targetPoint" />
            <Array as="points">
              <mxPoint x="-570" y="390" />
              <mxPoint x="-640" y="390" />
            </Array>
          </mxGeometry>
        </mxCell>
        <mxCell id="VtxvKHknxVCpQTFJ7BzY-23" value="Amazon Simple Storage Service ( Amazon S3)" style="text;html=1;strokeColor=none;fillColor=none;align=center;verticalAlign=middle;whiteSpace=wrap;rounded=0;" vertex="1" parent="1">
          <mxGeometry x="-420" y="200" width="270" height="24.5" as="geometry" />
        </mxCell>
        <mxCell id="VtxvKHknxVCpQTFJ7BzY-24" value="&lt;span style=&quot;background-color: rgb(255, 255, 255);&quot;&gt;EndPoint&lt;/span&gt;" style="text;html=1;strokeColor=none;fillColor=none;align=center;verticalAlign=middle;whiteSpace=wrap;rounded=0;" vertex="1" parent="1">
          <mxGeometry x="-421" y="528" width="200" height="60" as="geometry" />
        </mxCell>
        <mxCell id="VtxvKHknxVCpQTFJ7BzY-31" value="" style="endArrow=classic;html=1;rounded=0;" edge="1" parent="1" source="VtxvKHknxVCpQTFJ7BzY-12" target="VtxvKHknxVCpQTFJ7BzY-14">
          <mxGeometry width="50" height="50" relative="1" as="geometry">
            <mxPoint x="-500" y="370" as="sourcePoint" />
            <mxPoint x="-450" y="320" as="targetPoint" />
            <Array as="points">
              <mxPoint x="-520" y="410" />
              <mxPoint x="-460" y="340" />
              <mxPoint x="-420" y="274" />
            </Array>
          </mxGeometry>
        </mxCell>
        <mxCell id="VtxvKHknxVCpQTFJ7BzY-32" value="" style="endArrow=classic;html=1;rounded=0;" edge="1" parent="1" source="VtxvKHknxVCpQTFJ7BzY-14">
          <mxGeometry width="50" height="50" relative="1" as="geometry">
            <mxPoint x="-420" y="400" as="sourcePoint" />
            <mxPoint x="-320" y="450" as="targetPoint" />
          </mxGeometry>
        </mxCell>
      </root>
    </mxGraphModel>
  </diagram>
</mxfile>
